<svg width="15" height="16" viewBox="0 0 15 16" fill="none" xmlns="http://www.w3.org/2000/svg">
<g clip-path="url(#clip0_464_8284)">
<path opacity="0.125" d="M8.49604 1.67502C8.49604 1.04239 8.05009 0.529541 7.49997 0.529541C6.94986 0.529541 6.50391 1.04239 6.50391 1.67502V4.3644C6.50391 4.99703 6.94986 5.50988 7.49997 5.50988C8.05009 5.50988 8.49604 4.99703 8.49604 4.3644V1.67502Z" fill="#8C00E0"/>
<path opacity="0.25" d="M12.6768 4.23181C13.1241 3.78447 13.1714 3.1065 12.7825 2.71751C12.3935 2.32852 11.7155 2.37582 11.2681 2.82316L9.36647 4.72484C8.91913 5.17218 8.87183 5.85015 9.26082 6.23914C9.64981 6.62813 10.3278 6.58083 10.7751 6.13349L12.6768 4.23181Z" fill="#8C00E0"/>
<path opacity="0.375" d="M13.825 8.99629C14.4576 8.99629 14.9705 8.55033 14.9705 8.00022C14.9705 7.45011 14.4576 7.00415 13.825 7.00415H11.1356C10.503 7.00415 9.99012 7.45011 9.99012 8.00022C9.99012 8.55033 10.503 8.99629 11.1356 8.99629H13.825Z" fill="#8C00E0"/>
<path opacity="0.5" d="M11.2682 13.1768C11.7155 13.6241 12.3935 13.6714 12.7825 13.2825C13.1715 12.8935 13.1242 12.2155 12.6768 11.7681L10.7752 9.86647C10.3278 9.41913 9.64985 9.37183 9.26086 9.76082C8.87187 10.1498 8.91917 10.8278 9.36651 11.2751L11.2682 13.1768Z" fill="#8C00E0"/>
<path opacity="0.625" d="M6.50396 14.325C6.50396 14.9576 6.94991 15.4705 7.50003 15.4705C8.05014 15.4705 8.49609 14.9576 8.49609 14.325V11.6356C8.49609 11.003 8.05014 10.4901 7.50003 10.4901C6.94991 10.4901 6.50396 11.003 6.50396 11.6356V14.325Z" fill="#8C00E0"/>
<path opacity="0.75" d="M2.3232 11.7682C1.87586 12.2155 1.82856 12.8935 2.21755 13.2825C2.60654 13.6715 3.28451 13.6242 3.73185 13.1768L5.63353 11.2752C6.08087 10.8278 6.12817 10.1499 5.73918 9.76086C5.35019 9.37187 4.67221 9.41917 4.22488 9.86651L2.3232 11.7682Z" fill="#8C00E0"/>
<path opacity="0.875" d="M1.17502 7.00372C0.542389 7.00372 0.029541 7.44967 0.029541 7.99978C0.029541 8.5499 0.542389 8.99585 1.17502 8.99585H3.8644C4.49703 8.99585 5.00988 8.5499 5.00988 7.99978C5.00988 7.44967 4.49703 7.00372 3.8644 7.00372L1.17502 7.00372Z" fill="#8C00E0"/>
<path d="M3.73181 2.8232C3.28447 2.37586 2.6065 2.32856 2.21751 2.71755C1.82852 3.10654 1.87582 3.78451 2.32316 4.23185L4.22484 6.13353C4.67218 6.58087 5.35015 6.62817 5.73914 6.23918C6.12813 5.85019 6.08083 5.17221 5.63349 4.72488L3.73181 2.8232Z" fill="#8C00E0"/>
</g>
<defs>
<clipPath id="clip0_464_8284">
<rect width="15" height="15" fill="white" transform="translate(0 0.5)"/>
</clipPath>
</defs>
</svg>
