<svg width="76" height="26" viewBox="0 0 76 26" fill="none" xmlns="http://www.w3.org/2000/svg">
<path d="M2.66375 19C1.93842 19 1.57575 18.6373 1.57575 17.912V8.808C1.57575 8.08267 1.93842 7.72 2.66375 7.72H6.50375C7.68775 7.72 8.60508 7.98133 9.25575 8.504C9.90642 9.016 10.2318 9.73067 10.2318 10.648C10.2318 11.256 10.0771 11.7787 9.76775 12.216C9.45842 12.6533 9.03175 12.9733 8.48775 13.176C9.12775 13.3573 9.62375 13.6773 9.97575 14.136C10.3384 14.584 10.5198 15.1547 10.5198 15.848C10.5198 16.8507 10.1784 17.6293 9.49575 18.184C8.82375 18.728 7.88508 19 6.67975 19H2.66375ZM3.54375 12.504H6.15175C7.54908 12.504 8.24775 11.9653 8.24775 10.888C8.24775 9.81067 7.54908 9.272 6.15175 9.272H3.54375V12.504ZM3.54375 17.448H6.42375C7.83175 17.448 8.53575 16.8827 8.53575 15.752C8.53575 14.6213 7.83175 14.056 6.42375 14.056H3.54375V17.448ZM13.4874 19C12.826 19 12.4954 18.6693 12.4954 18.008V12.056C12.4954 11.384 12.8314 11.048 13.5034 11.048C14.1647 11.048 14.4954 11.384 14.4954 12.056V13.768H16.5594C17.594 13.768 18.3727 13.9867 18.8954 14.424C19.4287 14.8613 19.6954 15.5013 19.6954 16.344C19.6954 17.144 19.4127 17.7893 18.8474 18.28C18.2927 18.76 17.53 19 16.5594 19H13.4874ZM21.6314 19.128C20.97 19.128 20.6394 18.7867 20.6394 18.104V12.056C20.6394 11.384 20.97 11.048 21.6314 11.048C22.3034 11.048 22.6394 11.384 22.6394 12.056V18.104C22.6394 18.7867 22.3034 19.128 21.6314 19.128ZM14.4954 17.688H16.2554C16.7567 17.688 17.146 17.5813 17.4234 17.368C17.7007 17.144 17.8394 16.808 17.8394 16.36C17.8394 15.9227 17.7007 15.6027 17.4234 15.4C17.146 15.1867 16.7567 15.08 16.2554 15.08H14.4954V17.688ZM25.8453 19.128C25.2266 19.128 24.9173 18.7707 24.9173 18.056V12.008C24.9173 11.368 25.2213 11.048 25.8293 11.048C26.4266 11.048 26.7253 11.368 26.7253 12.008V16.392L30.2613 11.688C30.3786 11.5387 30.5226 11.3947 30.6933 11.256C30.8639 11.1173 31.0986 11.048 31.3973 11.048C32.0053 11.048 32.3093 11.4 32.3093 12.104V18.168C32.3093 18.808 32.0106 19.128 31.4133 19.128C30.8053 19.128 30.5013 18.808 30.5013 18.168V13.784L26.9653 18.488C26.8586 18.6373 26.7199 18.7813 26.5493 18.92C26.3893 19.0587 26.1546 19.128 25.8453 19.128ZM28.6133 10.184C27.9519 10.184 27.3759 10.0347 26.8853 9.736C26.3946 9.42667 26.0479 8.99467 25.8453 8.44C25.6959 8.03467 25.7973 7.77333 26.1493 7.656C26.4586 7.54933 26.7093 7.68267 26.9013 8.056C27.2533 8.73867 27.8239 9.08 28.6133 9.08C29.4026 9.08 29.9733 8.73867 30.3253 8.056C30.5173 7.68267 30.7679 7.54933 31.0773 7.656C31.2373 7.70933 31.3439 7.80533 31.3973 7.944C31.4613 8.072 31.4453 8.23733 31.3493 8.44C31.0826 8.99467 30.7253 9.42667 30.2773 9.736C29.8293 10.0347 29.2746 10.184 28.6133 10.184ZM37.2295 19.128C36.5575 19.128 36.2215 18.7867 36.2215 18.104V12.744H34.2695C33.6935 12.744 33.4055 12.4827 33.4055 11.96C33.4055 11.4373 33.6935 11.176 34.2695 11.176H40.1735C40.7495 11.176 41.0375 11.4373 41.0375 11.96C41.0375 12.4827 40.7495 12.744 40.1735 12.744H38.2215V18.104C38.2215 18.7867 37.8908 19.128 37.2295 19.128ZM43.064 19.128C42.4453 19.128 42.136 18.7707 42.136 18.056V12.008C42.136 11.368 42.44 11.048 43.048 11.048C43.6453 11.048 43.944 11.368 43.944 12.008V16.392L47.48 11.688C47.5973 11.5387 47.7413 11.3947 47.912 11.256C48.0827 11.1173 48.3173 11.048 48.616 11.048C49.224 11.048 49.528 11.4 49.528 12.104V18.168C49.528 18.808 49.2293 19.128 48.632 19.128C48.024 19.128 47.72 18.808 47.72 18.168V13.784L44.184 18.488C44.0773 18.6373 43.9387 18.7813 43.768 18.92C43.608 19.0587 43.3733 19.128 43.064 19.128Z" fill="#8424FF"/>
<g clip-path="url(#clip0_1501_43929)">
<path fill-rule="evenodd" clip-rule="evenodd" d="M60 8C60 6.34314 61.3431 5 63 5H67.5885C68.1408 5 68.5885 5.44772 68.5885 6C68.5885 6.55228 68.1408 7 67.5885 7H63C62.4477 7 62 7.44772 62 8V17.9702C62 18.5199 62.4437 18.9666 62.9934 18.9702L67.5951 19.0006C68.1474 19.0042 68.5921 19.4549 68.5885 20.0072C68.5848 20.5594 68.1342 21.0042 67.5819 21.0005L62.9802 20.9701C61.3311 20.9593 60 19.6193 60 17.9702V8ZM71.0012 8.99587C71.3931 8.60677 72.0263 8.60908 72.4154 9.00103L75.7013 12.3109C75.8858 12.4924 76.0003 12.7449 76.0003 13.0241C76.0003 13.3111 75.8794 13.5699 75.6857 13.7522L72.4102 17.0037C72.0183 17.3928 71.3851 17.3905 70.996 16.9985C70.6069 16.6066 70.6093 15.9734 71.0012 15.5843L72.573 14.0241H65.9411C65.3888 14.0241 64.9411 13.5764 64.9411 13.0241C64.9411 12.4718 65.3888 12.0241 65.9411 12.0241H72.5984L70.996 10.4101C70.6069 10.0181 70.6093 9.38496 71.0012 8.99587Z" fill="#8424FF"/>
</g>
<defs>
<clipPath id="clip0_1501_43929">
<rect width="26" height="26" fill="white" transform="translate(50)"/>
</clipPath>
</defs>
</svg>
